<svg width="29" height="58" viewBox="0 0 29 58" fill="none" xmlns="http://www.w3.org/2000/svg">
<g filter="url(#filter0_d_10_177)">
<path d="M20.6889 11.3265C20.6889 15.9453 17.7567 19.6897 14.1396 19.6897C10.5226 19.6897 7.59033 15.9453 7.59033 11.3265C7.59033 6.70757 10.5226 -0.00012207 14.1396 -0.00012207C17.7567 -0.00012207 20.6889 6.70757 20.6889 11.3265Z" fill="url(#paint0_linear_10_177)"/>
<path d="M20.1889 11.3265C20.1889 15.7899 17.3736 19.1897 14.1396 19.1897C10.9056 19.1897 8.09033 15.7899 8.09033 11.3265C8.09033 9.10589 8.79987 6.35354 9.95114 4.16376C10.5258 3.07075 11.198 2.14203 11.9237 1.49276C12.6494 0.843507 13.3972 0.499878 14.1396 0.499878C14.882 0.499878 15.6298 0.843507 16.3555 1.49276C17.0812 2.14203 17.7535 3.07075 18.3281 4.16376C19.4794 6.35354 20.1889 9.10589 20.1889 11.3265Z" stroke="url(#paint1_linear_10_177)"/>
</g>
<g filter="url(#filter1_d_10_177)">
<mask id="path-3-inside-1_10_177" fill="white">
<path fill-rule="evenodd" clip-rule="evenodd" d="M7.51993 12.2237H20.7594V19.7915L23.6467 21.8328V31.2998V45.8432H4.63263V31.2998V21.8328L7.51993 19.5835V12.2237ZM4.84387 46.8824C4.84387 46.3085 5.30912 45.8433 5.88303 45.8433H22.3963C22.9702 45.8433 23.4354 46.3085 23.4354 46.8824C23.4354 47.4506 22.9794 47.9123 22.4133 47.9214H23.1005C23.6744 47.9214 24.1396 48.3867 24.1396 48.9606C24.1396 49.5345 23.6744 49.9998 23.1005 49.9998H5.17881C4.6049 49.9998 4.13965 49.5345 4.13965 48.9606C4.13965 48.3867 4.6049 47.9214 5.17881 47.9214H5.86596C5.29992 47.9123 4.84387 47.4506 4.84387 46.8824Z"/>
</mask>
<path fill-rule="evenodd" clip-rule="evenodd" d="M7.51993 12.2237H20.7594V19.7915L23.6467 21.8328V31.2998V45.8432H4.63263V31.2998V21.8328L7.51993 19.5835V12.2237ZM4.84387 46.8824C4.84387 46.3085 5.30912 45.8433 5.88303 45.8433H22.3963C22.9702 45.8433 23.4354 46.3085 23.4354 46.8824C23.4354 47.4506 22.9794 47.9123 22.4133 47.9214H23.1005C23.6744 47.9214 24.1396 48.3867 24.1396 48.9606C24.1396 49.5345 23.6744 49.9998 23.1005 49.9998H5.17881C4.6049 49.9998 4.13965 49.5345 4.13965 48.9606C4.13965 48.3867 4.6049 47.9214 5.17881 47.9214H5.86596C5.29992 47.9123 4.84387 47.4506 4.84387 46.8824Z" fill="url(#paint2_linear_10_177)"/>
<path d="M20.7594 12.2237H21.7594V11.2237H20.7594V12.2237ZM7.51993 12.2237V11.2237H6.51993V12.2237H7.51993ZM20.7594 19.7915H19.7594V20.3092L20.1821 20.6081L20.7594 19.7915ZM23.6467 21.8328H24.6467V21.3151L24.224 21.0163L23.6467 21.8328ZM23.6467 45.8432V46.8432H24.6467V45.8432H23.6467ZM4.63263 45.8432H3.63263V46.8432H4.63263V45.8432ZM4.63263 21.8328L4.01808 21.0439L3.63263 21.3442V21.8328H4.63263ZM7.51993 19.5835L8.13449 20.3724L8.51993 20.0721V19.5835H7.51993ZM22.4133 47.9214L22.3972 46.9216L22.4133 48.9214V47.9214ZM5.86596 47.9214V48.9214L5.88206 46.9216L5.86596 47.9214ZM20.7594 11.2237H7.51993V13.2237H20.7594V11.2237ZM21.7594 19.7915V12.2237H19.7594V19.7915H21.7594ZM24.224 21.0163L21.3367 18.975L20.1821 20.6081L23.0694 22.6494L24.224 21.0163ZM24.6467 31.2998V21.8328H22.6467V31.2998H24.6467ZM24.6467 45.8432V31.2998H22.6467V45.8432H24.6467ZM4.63263 46.8432H23.6467V44.8432H4.63263V46.8432ZM3.63263 31.2998V45.8432H5.63263V31.2998H3.63263ZM3.63263 21.8328V31.2998H5.63263V21.8328H3.63263ZM6.90538 18.7947L4.01808 21.0439L5.24718 22.6217L8.13449 20.3724L6.90538 18.7947ZM6.51993 12.2237V19.5835H8.51993V12.2237H6.51993ZM5.88303 44.8433C4.75683 44.8433 3.84387 45.7562 3.84387 46.8824H5.84387C5.84387 46.8608 5.8614 46.8433 5.88303 46.8433V44.8433ZM22.3963 44.8433H5.88303V46.8433H22.3963V44.8433ZM24.4354 46.8824C24.4354 45.7562 23.5225 44.8433 22.3963 44.8433V46.8433C22.4179 46.8433 22.4354 46.8608 22.4354 46.8824H24.4354ZM22.4294 48.9213C23.5405 48.9034 24.4354 47.9975 24.4354 46.8824H22.4354C22.4354 46.9037 22.4182 46.9212 22.3972 46.9216L22.4294 48.9213ZM22.4133 48.9214H23.1005V46.9214H22.4133V48.9214ZM23.1005 48.9214C23.1221 48.9214 23.1396 48.939 23.1396 48.9606H25.1396C25.1396 47.8344 24.2267 46.9214 23.1005 46.9214V48.9214ZM23.1396 48.9606C23.1396 48.9822 23.1221 48.9998 23.1005 48.9998V50.9998C24.2267 50.9998 25.1396 50.0868 25.1396 48.9606H23.1396ZM23.1005 48.9998H5.17881V50.9998H23.1005V48.9998ZM5.17881 48.9998C5.15718 48.9998 5.13965 48.9822 5.13965 48.9606H3.13965C3.13965 50.0868 4.05261 50.9998 5.17881 50.9998V48.9998ZM5.13965 48.9606C5.13965 48.939 5.15718 48.9214 5.17881 48.9214V46.9214C4.05261 46.9214 3.13965 47.8344 3.13965 48.9606H5.13965ZM5.17881 48.9214H5.86596V46.9214H5.17881V48.9214ZM3.84387 46.8824C3.84387 47.9975 4.73877 48.9034 5.84986 48.9213L5.88206 46.9216C5.86108 46.9212 5.84387 46.9037 5.84387 46.8824H3.84387Z" fill="black" mask="url(#path-3-inside-1_10_177)"/>
</g>
<defs>
<filter id="filter0_d_10_177" x="3.59033" y="-0.00012207" width="21.0986" height="27.6898" filterUnits="userSpaceOnUse" color-interpolation-filters="sRGB">
<feFlood flood-opacity="0" result="BackgroundImageFix"/>
<feColorMatrix in="SourceAlpha" type="matrix" values="0 0 0 0 0 0 0 0 0 0 0 0 0 0 0 0 0 0 127 0" result="hardAlpha"/>
<feOffset dy="4"/>
<feGaussianBlur stdDeviation="2"/>
<feComposite in2="hardAlpha" operator="out"/>
<feColorMatrix type="matrix" values="0 0 0 0 0 0 0 0 0 0 0 0 0 0 0 0 0 0 0.25 0"/>
<feBlend mode="normal" in2="BackgroundImageFix" result="effect1_dropShadow_10_177"/>
<feBlend mode="normal" in="SourceGraphic" in2="effect1_dropShadow_10_177" result="shape"/>
</filter>
<filter id="filter1_d_10_177" x="0.139648" y="12.2237" width="28" height="45.7761" filterUnits="userSpaceOnUse" color-interpolation-filters="sRGB">
<feFlood flood-opacity="0" result="BackgroundImageFix"/>
<feColorMatrix in="SourceAlpha" type="matrix" values="0 0 0 0 0 0 0 0 0 0 0 0 0 0 0 0 0 0 127 0" result="hardAlpha"/>
<feOffset dy="4"/>
<feGaussianBlur stdDeviation="2"/>
<feComposite in2="hardAlpha" operator="out"/>
<feColorMatrix type="matrix" values="0 0 0 0 0 0 0 0 0 0 0 0 0 0 0 0 0 0 0.25 0"/>
<feBlend mode="normal" in2="BackgroundImageFix" result="effect1_dropShadow_10_177"/>
<feBlend mode="normal" in="SourceGraphic" in2="effect1_dropShadow_10_177" result="shape"/>
</filter>
<linearGradient id="paint0_linear_10_177" x1="7.59033" y1="7.96387" x2="20.5638" y2="9.66122" gradientUnits="userSpaceOnUse">
<stop stop-color="#F17909"/>
<stop offset="0.51875" stop-color="#B93C09"/>
<stop offset="0.95625" stop-color="#EB6B12"/>
<stop offset="1" stop-color="#FA974E"/>
</linearGradient>
<linearGradient id="paint1_linear_10_177" x1="14.1396" y1="-0.00012207" x2="14.1396" y2="19.6897" gradientUnits="userSpaceOnUse">
<stop stop-color="#380000"/>
<stop offset="1" stop-opacity="0"/>
</linearGradient>
<linearGradient id="paint2_linear_10_177" x1="6.46443" y1="31.1118" x2="24.1396" y2="31.1118" gradientUnits="userSpaceOnUse">
<stop stop-color="#FB590E"/>
<stop offset="0.336458" stop-color="#B30303"/>
<stop offset="0.492708" stop-color="#A00D30"/>
<stop offset="0.633333" stop-color="#B11616"/>
<stop offset="1" stop-color="#FE5608"/>
</linearGradient>
</defs>
</svg>
