<svg width="29" height="68" viewBox="0 0 29 68" fill="none" xmlns="http://www.w3.org/2000/svg">
<g filter="url(#filter0_d_10_201)">
<path d="M20.6889 15.4969C20.6889 21.8164 17.7567 26.9393 14.1396 26.9393C10.5226 26.9393 7.59033 21.8164 7.59033 15.4969C7.59033 9.17746 10.5226 0.00012207 14.1396 0.00012207C17.7567 0.00012207 20.6889 9.17746 20.6889 15.4969Z" fill="url(#paint0_linear_10_201)"/>
<path d="M20.1889 15.4969C20.1889 18.5856 19.4713 21.3574 18.3367 23.3396C17.1942 25.3357 15.6917 26.4393 14.1396 26.4393C12.5875 26.4393 11.0851 25.3357 9.94252 23.3396C8.80797 21.3574 8.09033 18.5856 8.09033 15.4969C8.09033 12.4011 8.81117 8.58755 9.9753 5.55807C10.5577 4.04252 11.2403 2.7516 11.9776 1.84915C12.7235 0.936045 13.4572 0.500122 14.1396 0.500122C14.822 0.500122 15.5557 0.936045 16.3017 1.84915C17.0389 2.7516 17.7216 4.04252 18.304 5.55807C19.4681 8.58755 20.1889 12.4011 20.1889 15.4969Z" stroke="url(#paint1_linear_10_201)"/>
</g>
<g filter="url(#filter1_d_10_201)">
<mask id="path-3-inside-1_10_201" fill="white">
<path fill-rule="evenodd" clip-rule="evenodd" d="M20.7594 17.5H7.51994V23.7896L5.34912 25.6061C4.89497 25.9861 4.63257 26.5478 4.63257 27.1399V32.5925V34.374V54.7484H23.6467V34.374V32.5925V27.1982C23.6467 26.5729 23.3542 25.9835 22.8562 25.6054L20.7594 24.0131V17.5ZM4.84393 56.0615C4.84393 55.3364 5.43174 54.7486 6.15683 54.7486H22.1226C22.8477 54.7486 23.4355 55.3364 23.4355 56.0615C23.4355 56.7866 22.8477 57.3744 22.1226 57.3744H6.15683C5.43174 57.3744 4.84393 56.7866 4.84393 56.0615ZM5.45254 57.3744C4.72745 57.3744 4.13965 57.9622 4.13965 58.6873C4.13965 59.4124 4.72745 60.0002 5.45254 60.0002H22.8268C23.5518 60.0002 24.1396 59.4124 24.1396 58.6873C24.1396 57.9622 23.5518 57.3744 22.8268 57.3744H5.45254Z"/>
</mask>
<path fill-rule="evenodd" clip-rule="evenodd" d="M20.7594 17.5H7.51994V23.7896L5.34912 25.6061C4.89497 25.9861 4.63257 26.5478 4.63257 27.1399V32.5925V34.374V54.7484H23.6467V34.374V32.5925V27.1982C23.6467 26.5729 23.3542 25.9835 22.8562 25.6054L20.7594 24.0131V17.5ZM4.84393 56.0615C4.84393 55.3364 5.43174 54.7486 6.15683 54.7486H22.1226C22.8477 54.7486 23.4355 55.3364 23.4355 56.0615C23.4355 56.7866 22.8477 57.3744 22.1226 57.3744H6.15683C5.43174 57.3744 4.84393 56.7866 4.84393 56.0615ZM5.45254 57.3744C4.72745 57.3744 4.13965 57.9622 4.13965 58.6873C4.13965 59.4124 4.72745 60.0002 5.45254 60.0002H22.8268C23.5518 60.0002 24.1396 59.4124 24.1396 58.6873C24.1396 57.9622 23.5518 57.3744 22.8268 57.3744H5.45254Z" fill="url(#paint2_linear_10_201)"/>
<path d="M7.51994 17.5V17H7.01994V17.5H7.51994ZM20.7594 17.5H21.2594V17H20.7594V17.5ZM7.51994 23.7896L7.8408 24.1731L8.01994 24.0232V23.7896H7.51994ZM5.34912 25.6061L5.66998 25.9895H5.66998L5.34912 25.6061ZM4.63257 54.7484H4.13257V55.2484H4.63257V54.7484ZM23.6467 54.7484V55.2484H24.1467V54.7484H23.6467ZM22.8562 25.6054L23.1586 25.2072L22.8562 25.6054ZM20.7594 24.0131H20.2594V24.2613L20.457 24.4113L20.7594 24.0131ZM7.51994 18H20.7594V17H7.51994V18ZM8.01994 23.7896V17.5H7.01994V23.7896H8.01994ZM5.66998 25.9895L7.8408 24.1731L7.19907 23.4062L5.02826 25.2226L5.66998 25.9895ZM5.13257 27.1399C5.13257 26.6958 5.32937 26.2745 5.66998 25.9895L5.02826 25.2226C4.46057 25.6976 4.13257 26.3997 4.13257 27.1399H5.13257ZM5.13257 32.5925V27.1399H4.13257V32.5925H5.13257ZM5.13257 34.374V32.5925H4.13257V34.374H5.13257ZM5.13257 54.7484V34.374H4.13257V54.7484H5.13257ZM23.6467 54.2484H4.63257V55.2484H23.6467V54.2484ZM23.1467 34.374V54.7484H24.1467V34.374H23.1467ZM23.1467 32.5925V34.374H24.1467V32.5925H23.1467ZM23.1467 27.1982V32.5925H24.1467V27.1982H23.1467ZM22.5538 26.0036C22.9273 26.2872 23.1467 26.7292 23.1467 27.1982H24.1467C24.1467 26.4165 23.7811 25.6799 23.1586 25.2072L22.5538 26.0036ZM20.457 24.4113L22.5538 26.0036L23.1586 25.2072L21.0618 23.6149L20.457 24.4113ZM20.2594 17.5V24.0131H21.2594V17.5H20.2594ZM6.15683 54.2486C5.15559 54.2486 4.34393 55.0602 4.34393 56.0615H5.34393C5.34393 55.6125 5.70788 55.2486 6.15683 55.2486V54.2486ZM22.1226 54.2486H6.15683V55.2486H22.1226V54.2486ZM23.9355 56.0615C23.9355 55.0602 23.1238 54.2486 22.1226 54.2486V55.2486C22.5715 55.2486 22.9355 55.6125 22.9355 56.0615H23.9355ZM22.1226 57.8744C23.1238 57.8744 23.9355 57.0627 23.9355 56.0615H22.9355C22.9355 56.5104 22.5715 56.8744 22.1226 56.8744V57.8744ZM6.15683 57.8744H22.1226V56.8744H6.15683V57.8744ZM4.34393 56.0615C4.34393 57.0627 5.15559 57.8744 6.15683 57.8744V56.8744C5.70788 56.8744 5.34393 56.5104 5.34393 56.0615H4.34393ZM4.63965 58.6873C4.63965 58.2384 5.00359 57.8744 5.45254 57.8744V56.8744C4.45131 56.8744 3.63965 57.6861 3.63965 58.6873H4.63965ZM5.45254 59.5002C5.00359 59.5002 4.63965 59.1363 4.63965 58.6873H3.63965C3.63965 59.6886 4.45131 60.5002 5.45254 60.5002V59.5002ZM22.8268 59.5002H5.45254V60.5002H22.8268V59.5002ZM23.6396 58.6873C23.6396 59.1363 23.2757 59.5002 22.8268 59.5002V60.5002C23.828 60.5002 24.6396 59.6886 24.6396 58.6873H23.6396ZM22.8268 57.8744C23.2757 57.8744 23.6396 58.2384 23.6396 58.6873H24.6396C24.6396 57.6861 23.828 56.8744 22.8268 56.8744V57.8744ZM5.45254 57.8744H22.8268V56.8744H5.45254V57.8744Z" fill="black" mask="url(#path-3-inside-1_10_201)"/>
</g>
<defs>
<filter id="filter0_d_10_201" x="3.59033" y="0.00012207" width="21.0986" height="34.9392" filterUnits="userSpaceOnUse" color-interpolation-filters="sRGB">
<feFlood flood-opacity="0" result="BackgroundImageFix"/>
<feColorMatrix in="SourceAlpha" type="matrix" values="0 0 0 0 0 0 0 0 0 0 0 0 0 0 0 0 0 0 127 0" result="hardAlpha"/>
<feOffset dy="4"/>
<feGaussianBlur stdDeviation="2"/>
<feComposite in2="hardAlpha" operator="out"/>
<feColorMatrix type="matrix" values="0 0 0 0 0 0 0 0 0 0 0 0 0 0 0 0 0 0 0.25 0"/>
<feBlend mode="normal" in2="BackgroundImageFix" result="effect1_dropShadow_10_201"/>
<feBlend mode="normal" in="SourceGraphic" in2="effect1_dropShadow_10_201" result="shape"/>
</filter>
<filter id="filter1_d_10_201" x="0.139648" y="17.5" width="28" height="50.5002" filterUnits="userSpaceOnUse" color-interpolation-filters="sRGB">
<feFlood flood-opacity="0" result="BackgroundImageFix"/>
<feColorMatrix in="SourceAlpha" type="matrix" values="0 0 0 0 0 0 0 0 0 0 0 0 0 0 0 0 0 0 127 0" result="hardAlpha"/>
<feOffset dy="4"/>
<feGaussianBlur stdDeviation="2"/>
<feComposite in2="hardAlpha" operator="out"/>
<feColorMatrix type="matrix" values="0 0 0 0 0 0 0 0 0 0 0 0 0 0 0 0 0 0 0.25 0"/>
<feBlend mode="normal" in2="BackgroundImageFix" result="effect1_dropShadow_10_201"/>
<feBlend mode="normal" in="SourceGraphic" in2="effect1_dropShadow_10_201" result="shape"/>
</filter>
<linearGradient id="paint0_linear_10_201" x1="7.59033" y1="10.8963" x2="20.6663" y2="12.1467" gradientUnits="userSpaceOnUse">
<stop stop-color="#6C3406"/>
<stop offset="0.0001" stop-color="#C18436"/>
<stop offset="0.398958" stop-color="#4E3D15"/>
<stop offset="0.648958" stop-color="#BC8239"/>
<stop offset="1" stop-color="#8E6E2F"/>
</linearGradient>
<linearGradient id="paint1_linear_10_201" x1="14.1396" y1="0.00012207" x2="14.1396" y2="26.9393" gradientUnits="userSpaceOnUse">
<stop stop-color="#380000"/>
<stop offset="1" stop-opacity="0"/>
</linearGradient>
<linearGradient id="paint2_linear_10_201" x1="6.46443" y1="36.1364" x2="24.1396" y2="36.1364" gradientUnits="userSpaceOnUse">
<stop stop-color="#F4BA71"/>
<stop offset="0.2375" stop-color="#945A11"/>
<stop offset="0.388542" stop-color="#6A4413"/>
<stop offset="0.633333" stop-color="#BC8239"/>
<stop offset="0.784375" stop-color="#8B5C21"/>
<stop offset="1" stop-color="#F4BA71"/>
</linearGradient>
</defs>
</svg>
