<svg width="29" height="63" viewBox="0 0 29 63" fill="none" xmlns="http://www.w3.org/2000/svg">
<g filter="url(#filter0_d_10_135)">
<path d="M20.6889 14.2053C20.6889 19.9981 17.7567 24.6942 14.1396 24.6942C10.5226 24.6942 7.59033 19.9981 7.59033 14.2053C7.59033 8.41244 10.5226 -0.00012207 14.1396 -0.00012207C17.7567 -0.00012207 20.6889 8.41244 20.6889 14.2053Z" fill="url(#paint0_linear_10_135)"/>
<path d="M20.1889 14.2053C20.1889 17.0231 19.4748 19.5504 18.3466 21.3572C17.2139 23.1712 15.7133 24.1942 14.1396 24.1942C12.5659 24.1942 11.0653 23.1712 9.93269 21.3572C8.80448 19.5504 8.09033 17.0231 8.09033 14.2053C8.09033 11.3788 8.80874 7.893 9.9697 5.12357C10.5502 3.7387 11.2301 2.56063 11.9636 1.73752C12.7025 0.908428 13.4391 0.499878 14.1396 0.499878C14.8401 0.499878 15.5767 0.908428 16.3156 1.73752C17.0492 2.56063 17.729 3.7387 18.3096 5.12357C19.4705 7.893 20.1889 11.3788 20.1889 14.2053Z" stroke="url(#paint1_linear_10_135)"/>
</g>
<g filter="url(#filter1_d_10_135)">
<mask id="path-3-inside-1_10_135" fill="white">
<path fill-rule="evenodd" clip-rule="evenodd" d="M20.7594 16.0415H7.51994V21.8071L5.41536 23.4213C4.92188 23.7998 4.63257 24.3864 4.63257 25.0083V29.8764V31.3428V50.186H23.6467V31.3428V29.8764V25.0664C23.6467 24.4119 23.3264 23.7988 22.7893 23.4249L20.7594 22.012V16.0415ZM4.84387 51.3896C4.84387 50.7249 5.38269 50.1861 6.04736 50.1861H22.2319C22.8966 50.1861 23.4354 50.7249 23.4354 51.3896C23.4354 52.0543 22.8966 52.5931 22.2319 52.5931H6.04736C5.38269 52.5931 4.84387 52.0543 4.84387 51.3896ZM5.34313 52.5932C4.67847 52.5932 4.13965 53.132 4.13965 53.7967C4.13965 54.4613 4.67847 55.0001 5.34313 55.0001H22.9362C23.6008 55.0001 24.1396 54.4613 24.1396 53.7967C24.1396 53.132 23.6008 52.5932 22.9362 52.5932H5.34313Z"/>
</mask>
<path fill-rule="evenodd" clip-rule="evenodd" d="M20.7594 16.0415H7.51994V21.8071L5.41536 23.4213C4.92188 23.7998 4.63257 24.3864 4.63257 25.0083V29.8764V31.3428V50.186H23.6467V31.3428V29.8764V25.0664C23.6467 24.4119 23.3264 23.7988 22.7893 23.4249L20.7594 22.012V16.0415ZM4.84387 51.3896C4.84387 50.7249 5.38269 50.1861 6.04736 50.1861H22.2319C22.8966 50.1861 23.4354 50.7249 23.4354 51.3896C23.4354 52.0543 22.8966 52.5931 22.2319 52.5931H6.04736C5.38269 52.5931 4.84387 52.0543 4.84387 51.3896ZM5.34313 52.5932C4.67847 52.5932 4.13965 53.132 4.13965 53.7967C4.13965 54.4613 4.67847 55.0001 5.34313 55.0001H22.9362C23.6008 55.0001 24.1396 54.4613 24.1396 53.7967C24.1396 53.132 23.6008 52.5932 22.9362 52.5932H5.34313Z" fill="url(#paint2_linear_10_135)" shape-rendering="crispEdges"/>
<path d="M7.51994 16.0415V15.5415H7.01994V16.0415H7.51994ZM20.7594 16.0415H21.2594V15.5415H20.7594V16.0415ZM7.51994 21.8071L7.82424 22.2038L8.01994 22.0537V21.8071H7.51994ZM5.41536 23.4213L5.11106 23.0246H5.11106L5.41536 23.4213ZM4.63257 50.186H4.13257V50.686H4.63257V50.186ZM23.6467 50.186V50.686H24.1467V50.186H23.6467ZM22.7893 23.4249L23.0749 23.0146L22.7893 23.4249ZM20.7594 22.012H20.2594V22.2731L20.4737 22.4223L20.7594 22.012ZM7.51994 16.5415H20.7594V15.5415H7.51994V16.5415ZM8.01994 21.8071V16.0415H7.01994V21.8071H8.01994ZM5.71966 23.8181L7.82424 22.2038L7.21563 21.4104L5.11106 23.0246L5.71966 23.8181ZM5.13257 25.0083C5.13257 24.5418 5.34955 24.1019 5.71966 23.8181L5.11106 23.0246C4.49421 23.4977 4.13257 24.2309 4.13257 25.0083H5.13257ZM5.13257 29.8764V25.0083H4.13257V29.8764H5.13257ZM5.13257 31.3428V29.8764H4.13257V31.3428H5.13257ZM5.13257 50.186V31.3428H4.13257V50.186H5.13257ZM23.6467 49.686H4.63257V50.686H23.6467V49.686ZM23.1467 31.3428V50.186H24.1467V31.3428H23.1467ZM23.1467 29.8764V31.3428H24.1467V29.8764H23.1467ZM23.1467 25.0664V29.8764H24.1467V25.0664H23.1467ZM22.5036 23.8353C22.9065 24.1157 23.1467 24.5755 23.1467 25.0664H24.1467C24.1467 24.2483 23.7464 23.4819 23.0749 23.0146L22.5036 23.8353ZM20.4737 22.4223L22.5036 23.8353L23.0749 23.0146L21.045 21.6016L20.4737 22.4223ZM20.2594 16.0415V22.012H21.2594V16.0415H20.2594ZM6.04736 49.6861C5.10655 49.6861 4.34387 50.4488 4.34387 51.3896H5.34387C5.34387 51.0011 5.65883 50.6861 6.04736 50.6861V49.6861ZM22.2319 49.6861H6.04736V50.6861H22.2319V49.6861ZM23.9354 51.3896C23.9354 50.4488 23.1727 49.6861 22.2319 49.6861V50.6861C22.6205 50.6861 22.9354 51.0011 22.9354 51.3896H23.9354ZM22.2319 53.0931C23.1727 53.0931 23.9354 52.3304 23.9354 51.3896H22.9354C22.9354 51.7781 22.6205 52.0931 22.2319 52.0931V53.0931ZM6.04736 53.0931H22.2319V52.0931H6.04736V53.0931ZM4.34387 51.3896C4.34387 52.3304 5.10655 53.0931 6.04736 53.0931V52.0931C5.65883 52.0931 5.34387 51.7781 5.34387 51.3896H4.34387ZM4.63965 53.7967C4.63965 53.4081 4.95461 53.0932 5.34313 53.0932V52.0932C4.40233 52.0932 3.63965 52.8558 3.63965 53.7967H4.63965ZM5.34313 54.5001C4.95461 54.5001 4.63965 54.1852 4.63965 53.7967H3.63965C3.63965 54.7375 4.40233 55.5001 5.34313 55.5001V54.5001ZM22.9362 54.5001H5.34313V55.5001H22.9362V54.5001ZM23.6396 53.7967C23.6396 54.1852 23.3247 54.5001 22.9362 54.5001V55.5001C23.877 55.5001 24.6396 54.7375 24.6396 53.7967H23.6396ZM22.9362 53.0932C23.3247 53.0932 23.6396 53.4081 23.6396 53.7967H24.6396C24.6396 52.8558 23.877 52.0932 22.9362 52.0932V53.0932ZM5.34313 53.0932H22.9362V52.0932H5.34313V53.0932Z" fill="black" mask="url(#path-3-inside-1_10_135)"/>
</g>
<defs>
<filter id="filter0_d_10_135" x="3.59033" y="-0.00012207" width="21.0986" height="32.6943" filterUnits="userSpaceOnUse" color-interpolation-filters="sRGB">
<feFlood flood-opacity="0" result="BackgroundImageFix"/>
<feColorMatrix in="SourceAlpha" type="matrix" values="0 0 0 0 0 0 0 0 0 0 0 0 0 0 0 0 0 0 127 0" result="hardAlpha"/>
<feOffset dy="4"/>
<feGaussianBlur stdDeviation="2"/>
<feComposite in2="hardAlpha" operator="out"/>
<feColorMatrix type="matrix" values="0 0 0 0 0 0 0 0 0 0 0 0 0 0 0 0 0 0 0.25 0"/>
<feBlend mode="normal" in2="BackgroundImageFix" result="effect1_dropShadow_10_135"/>
<feBlend mode="normal" in="SourceGraphic" in2="effect1_dropShadow_10_135" result="shape"/>
</filter>
<filter id="filter1_d_10_135" x="0.139648" y="16.0415" width="28" height="46.9587" filterUnits="userSpaceOnUse" color-interpolation-filters="sRGB">
<feFlood flood-opacity="0" result="BackgroundImageFix"/>
<feColorMatrix in="SourceAlpha" type="matrix" values="0 0 0 0 0 0 0 0 0 0 0 0 0 0 0 0 0 0 127 0" result="hardAlpha"/>
<feOffset dy="4"/>
<feGaussianBlur stdDeviation="2"/>
<feComposite in2="hardAlpha" operator="out"/>
<feColorMatrix type="matrix" values="0 0 0 0 0 0 0 0 0 0 0 0 0 0 0 0 0 0 0.25 0"/>
<feBlend mode="normal" in2="BackgroundImageFix" result="effect1_dropShadow_10_135"/>
<feBlend mode="normal" in="SourceGraphic" in2="effect1_dropShadow_10_135" result="shape"/>
</filter>
<linearGradient id="paint0_linear_10_135" x1="7.59033" y1="9.98804" x2="20.6438" y2="11.3498" gradientUnits="userSpaceOnUse">
<stop stop-color="#7890A7"/>
<stop offset="0.3625" stop-color="#213547"/>
<stop offset="0.648958" stop-color="#516E86"/>
<stop offset="1" stop-color="#A4C1D1"/>
</linearGradient>
<linearGradient id="paint1_linear_10_135" x1="14.1396" y1="-0.00012207" x2="14.1396" y2="24.6942" gradientUnits="userSpaceOnUse">
<stop stop-color="#380000"/>
<stop offset="1" stop-opacity="0"/>
</linearGradient>
<linearGradient id="paint2_linear_10_135" x1="6.46443" y1="33.1249" x2="24.1396" y2="33.1249" gradientUnits="userSpaceOnUse">
<stop stop-color="#D6E6EF"/>
<stop offset="0.253125" stop-color="#34526D"/>
<stop offset="0.425" stop-color="#89A3B4"/>
<stop offset="0.602083" stop-color="#617997" stop-opacity="0.964545"/>
<stop offset="0.76875" stop-color="#92ACBA"/>
<stop offset="1" stop-color="#C7EBFF"/>
</linearGradient>
</defs>
</svg>
